<svg width="33" height="33" viewBox="0 0 33 33" fill="none" xmlns="http://www.w3.org/2000/svg">
<path d="M16.5 0.75C7.81523 0.75 0.75 7.81523 0.75 16.5C0.75 25.1848 7.81523 32.25 16.5 32.25C25.1848 32.25 32.25 25.1848 32.25 16.5C32.25 7.81523 25.1848 0.75 16.5 0.75ZM16.5 28.9318C9.64522 28.9318 4.06818 23.3547 4.06818 16.5C4.06818 9.64532 9.64522 4.06818 16.5 4.06818C23.3548 4.06818 28.9318 9.64532 28.9318 16.5C28.9318 23.3547 23.3547 28.9318 16.5 28.9318Z" fill="white" stroke="white" stroke-width="0.5"/>
<path d="M10.8646 15.1608L10.6878 15.3376L10.8646 15.1608C10.2168 14.513 9.16625 14.5129 8.51831 15.1607L8.51829 15.1607C7.87037 15.8087 7.87037 16.8591 8.51829 17.507L13.1679 22.1568L13.3447 21.9801L13.1679 22.1568C13.479 22.4679 13.901 22.6428 14.341 22.6428H14.341H14.341H14.341H14.341H14.3411H14.3411H14.3411H14.3411H14.3411H14.3411H14.3411H14.3411H14.3411C14.7811 22.6428 15.2031 22.4679 15.5142 22.157L15.5142 22.1569L24.4818 13.1896C25.1297 12.5416 25.1297 11.4912 24.4818 10.8433C23.8339 10.1954 22.7834 10.1952 22.1355 10.8432L14.3411 18.6374L10.8646 15.1608Z" fill="white" stroke="white" stroke-width="0.5"/>
</svg>
