<svg width="37" height="37" viewBox="0 0 37 37" fill="none" xmlns="http://www.w3.org/2000/svg">
<path d="M18.5 0.75C8.71243 0.75 0.75 8.71243 0.75 18.5C0.75 28.2876 8.71243 36.25 18.5 36.25C28.2876 36.25 36.25 28.2876 36.25 18.5C36.25 8.71243 28.2876 0.75 18.5 0.75ZM18.5 32.5682C10.7429 32.5682 4.43182 26.257 4.43182 18.5C4.43182 10.743 10.7429 4.43182 18.5 4.43182C26.2571 4.43182 32.5682 10.743 32.5682 18.5C32.5682 26.257 26.257 32.5682 18.5 32.5682Z" fill="#7EB9CB" stroke="#7EB9CB" stroke-width="0.5"/>
<path d="M12.1146 17.0106L11.9378 17.1874L12.1146 17.0106C11.3958 16.2918 10.2302 16.2916 9.51122 17.0105L9.5112 17.0105C8.79227 17.7294 8.79227 18.895 9.5112 19.6139L14.7608 24.8637L14.9376 24.6869L14.7608 24.8637C15.106 25.2089 15.5742 25.4029 16.0624 25.4029H16.0624H16.0624H16.0625H16.0625H16.0625H16.0625H16.0625H16.0625H16.0625H16.0625H16.0625H16.0625H16.0625H16.0625C16.5508 25.4029 17.019 25.2089 17.3642 24.8638L17.3642 24.8638L27.4889 14.7394C28.2078 14.0204 28.2078 12.8549 27.4889 12.1359C26.7699 11.417 25.6044 11.4169 24.8854 12.1358L16.0625 20.9586L12.1146 17.0106Z" fill="#7EB9CB" stroke="#7EB9CB" stroke-width="0.5"/>
</svg>
