<svg width="639" height="639" viewBox="0 0 639 639" fill="none" xmlns="http://www.w3.org/2000/svg">
<circle cx="319.5" cy="319.5" r="319.5" fill="#32607F"/>
<path d="M465 289.063V447H378.156V306.096C378.156 288.031 366.997 272.547 348.561 272.547C330.125 272.547 320.907 292.676 320.907 306.096V447H233.578V306.096C233.578 288.031 222.905 272.547 203.983 272.547C185.062 272.547 175.844 292.676 175.844 306.096V447H89V197.192H175.844V230.224C191.854 206.998 214.657 192.03 243.281 192.03C257.621 191.597 271.747 195.807 283.789 204.101C295.831 212.396 305.222 224.385 310.719 238.482C325.759 209.063 351.957 192.03 387.374 192.03C439.286 192.03 465 229.708 465 289.063Z" fill="#7EB9CB"/>
<path d="M480 410C480 400.187 483.688 390.776 490.251 383.837C496.815 376.898 505.717 373 515 373C524.283 373 533.185 376.898 539.749 383.837C546.313 390.776 550 400.187 550 410C550 419.813 546.313 429.224 539.749 436.163C533.185 443.102 524.283 447 515 447C505.717 447 496.815 443.102 490.251 436.163C483.688 429.224 480 419.813 480 410Z" fill="white"/>
</svg>
